# AST/ASF file generated using VICON BodyLanguage
# -----------------------------------------------
:version 1.10
:name VICON
:units
  mass 1.0
  length 0.45
  angle deg
:documentation
   .ast/.asf automatically generated from VICON data using
   VICON BodyBuilder and BodyLanguage model FoxedUp or BRILLIANT.MOD
:root
   order TX TY TZ RX RY RZ
   axis XYZ
   position 0 0 0  
   orientation 0 -0 0 
:bonedata
  begin
     id 1 
     name lhipjoint
     direction 0.515797 -0.759363 0.396637 
     length 2.47888 
     axis 0 -0 0  XYZ
  end
  begin
     id 2 
     name lfemur
     direction 0.34202 -0.939693 0  
     length 6.81885  
     axis 0 -0 20  XYZ
    dof rx ry rz
    limits (-160.0 20.0)
           (-70.0 70.0)
           (-60.0 70.0)
  end
  begin
     id 3 
     name ltibia
     direction 0.342037 -0.939687 0   
     length 7.89258   
     axis 0 -0 20   XYZ
    dof rx
    limits (-10.0 170.0)
  end
  begin
     id 4 
     name lfoot
     direction 0.173497 -0.476678 0.861787   
     length 2.51543   
     axis -90 -1.13533e-015 20   XYZ
    dof rx rz
    limits (-45.0 90.0)
           (-70.0 20.0)
  end
  begin
     id 5 
     name ltoes
     direction 1.53564e-011 -4.21897e-011 1   
     length 1.21388   
     axis -90 -1.13533e-015 20   XYZ
    dof rx
    limits (-90.0 20.0)
  end
  begin
     id 6 
     name rhipjoint
     direction -0.489454 -0.772941 0.403729   
     length 2.43534  
     axis 0 -0 0  XYZ 
  end
  begin
     id 7 
     name rfemur
     direction -0.34202 -0.939693 0   
     length 7.10357   
     axis 0 -0 -20   XYZ
    dof rx ry rz
    limits (-160.0 20.0)
           (-70.0 70.0)
           (-70.0 60.0)
  end
  begin
     id 8 
     name rtibia
     direction -0.34202 -0.939693 0   
     length 9.16127   
     axis 0 -0 -20   XYZ
    dof rx
    limits (-10.0 170.0)
 end
 begin
     id 9 
     name rfoot
     direction -0.270974 -0.748671 0.605033   
     length 1.74894  
     axis -90 1.13533e-015 -20   XYZ
    dof rx rz
    limits (-45.0 90.0)
           (-20.0 70.0)
  end
  begin
     id 10 
     name rtoes
     direction -1.53557e-011 -4.21759e-011 1   
     length 0.787585   
     axis -90 1.13533e-015 -20   XYZ
    dof rx
    limits (-90.0 20.0)
  end
  begin
     id 11 
     name lowerback
     direction -0.0140249 0.999561 0.0260968   
     length 2.16963   
     axis 0 -0 0   XYZ
    dof rx ry rz
    limits (-20.0 45.0)
           (-30.0 30.0)
           (-30.0 30.0)
  end
  begin
     id 12 
     name upperback
     direction 0.00860018 0.999959 -0.002711   
     length 2.1726   
     axis 0 -0 0   XYZ
    dof rx ry rz
    limits (-20.0 45.0)
           (-30.0 30.0)
           (-30.0 30.0)
  end
  begin
     id 13 
     name thorax
     direction 0.015211 0.999782 -0.0143191   
     length 2.17061   
     axis 0 -0 0   XYZ
    dof rx ry rz
    limits (-20.0 45.0)
           (-30.0 30.0)
           (-30.0 30.0)
  end
  begin
     id 14 
     name lowerneck
     direction -0.0140143 0.999447 0.030145   
     length 2.26749   
     axis 0 -0 0   XYZ
    dof rx ry rz
    limits (-20.0 45.0)
           (-30.0 30.0)
           (-30.0 30.0)
  end
  begin
     id 15 
     name upperneck
     direction 0.118062 0.961438 -0.248392   
     length 2.22728   
     axis 0 -0 0   XYZ
    dof rx ry rz
    limits (-20.0 45.0)
           (-30.0 30.0)
           (-30.0 30.0)
  end
  begin
     id 16
     name head
     direction 0.0431885 0.9954 -0.085514  
     length 2.28786  
     axis 0 -0 0   XYZ
    dof rx ry rz
    limits (-20.0 45.0)
           (-30.0 30.0)
           (-30.0 30.0)
  end
  begin
     id 17 
     name lclavicle
     direction 0.912126 0.409548 0.0172323  
     length 4.31571  
     axis 0 -0 0   XYZ
    dof ry rz
    limits (-20.0 10.0)
           (0.0 20.0)
  end
  begin
     id 18 
     name lhumerus
     direction 1 -4.48977e-011 1.93091e-027   
     length 5.13658   
     axis 180 -30 -90   XYZ
    dof rx ry rz
    limits (-60.0 90.0)
           (-90.0 90.0)
           (-90.0 90.0)
  end
  begin
     id 19
     name lradius
     direction 1 -4.48916e-011 6.84018e-027   
     length 3.22473   
     axis 180 -30 -90   XYZ
    dof rx
    limits (-10.0 170.0)
  end
  begin
     id 20
     name lwrist
     direction 1 -4.48987e-011 7.01981e-027   
     length 1.61236   
     axis -4.37994e-015 90 90   XYZ
    dof ry
    limits (-180.0 0.0)
 end
  begin
     id 21 
     name lhand
     direction 1 -4.49037e-011 1.40335e-026   
     length 0.936406   
     axis -8.96029e-015 90 90   XYZ
    dof rx rz
    limits (-90.0 90.0)
           (-45.0 45.0)
  end
  begin
     id 22 
     name lfingers
     direction 1 -4.48886e-011 2.8104e-026   
     length 0.754955   
     axis -1.79203e-014 90 90   XYZ
    dof rx
    limits (0.0 90.0)
  end
  begin
     id 23
     name lthumb
     direction 0.707107 -6.34937e-011 0.707107   
     length 1.08397   
     axis -90 45 -4.48555e-014   XYZ
    dof rx rz
    limits (-45.0 45.0)
           (-45.0 45.0)
  end
  begin
     id 24 
     name rclavicle
     direction -0.947962 0.317997 0.0156638   
     length 4.86918  
     axis 0 -0 0   XYZ 
    dof ry rz
    limits (-10.0 20.0)
           (-20.0 0.0)
  end
  begin
     id 25 
     name rhumerus
     direction -1 -4.48951e-011 2.80534e-018  
     length 5.60911   
     axis 180 30 90   XYZ
    dof rx ry rz
    limits (-90.0 60.0)
           (-90.0 90.0)
           (-90.0 90.0)
  end
  begin
     id 26 
     name rradius
     direction -1 -4.4898e-011 2.11315e-027   
     length 3.38704   
     axis 180 30 90   XYZ
    dof rx
    limits (-10.0 170.0)
  end
  begin
     id 27 
     name rwrist
     direction -1 -4.48933e-011 7.02314e-027   
     length 1.69352   
     axis -4.37994e-015 -90 -90   XYZ
    dof ry
    limits (-180.0 0.0)
  end
  begin
     id 28
     name rhand
     direction -1 -4.48937e-011 1.40458e-026   
     length 0.755878   
     axis -8.96029e-015 -90 -90   XYZ
    dof rx rz
    limits (-90.0 90.0)
           (-45.0 45.0)
  end
  begin
     id 29
     name rfingers
     direction -1 -4.4901e-011 2.80737e-026   
     length 0.609409   
     axis -1.79203e-014 -90 -90   XYZ
    dof rx
    limits (0.0 90.0)
  end
  begin
     id 30
     name rthumb
     direction -0.707107 -6.34968e-011 0.707107   
     length 0.874992   
     axis -90 -45 4.48555e-014   XYZ
    dof rx rz
    limits (-45.0 45.0)
           (-45.0 45.0)
  end
:hierarchy
  begin
    root lhipjoint rhipjoint lowerback
    lhipjoint lfemur
    lfemur ltibia
    ltibia lfoot
    lfoot ltoes
    rhipjoint rfemur
    rfemur rtibia
    rtibia rfoot
    rfoot rtoes
    lowerback upperback
    upperback thorax
    thorax lowerneck lclavicle rclavicle
    lowerneck upperneck
    upperneck head
    lclavicle lhumerus
    lhumerus lradius
    lradius lwrist
    lwrist lhand lthumb
    lhand lfingers
    rclavicle rhumerus
    rhumerus rradius
    rradius rwrist
    rwrist rhand rthumb
    rhand rfingers
  end

#!OML:ASF C:\ViconDB\ViconDB\414\Spring2016\041811\Spring2016.ASF
:FULLY-SPECIFIED
:DEGREES
124
root 7.9645 17.1617 -5.79613 -172.825 6.24402 183.544
lowerback 5.68498 4.91366 0.258527
upperback 2.06466 6.77032 2.54046
thorax -1.32163 3.44954 1.99593
lowerneck -11.5893 -7.19827 -15.2132
upperneck 10.4097 -10.3176 18.9931
head 6.91771 -4.54402 7.69151
rclavicle -2.50469e-014 -9.54166e-015
rhumerus -26.8014 19.4938 -89.8881
rradius 127.93
rwrist 7.39127
rhand -36.4866 -9.89794
rfingers 7.12502
rthumb -9.57932 -39.6602
lclavicle -2.50469e-014 -9.54166e-015
lhumerus -96.3252 -28.3641 103.889
lradius 69.2092
lwrist -12.4115
lhand -34.0446 9.93465
lfingers 7.12502
lthumb -7.22262 39.7914
rfemur 5.44122 -7.58416 25.8023
rtibia 33.1278
rfoot -164.842 17.2683
rtoes -6.57993
lfemur -48.0412 4.74484 -12.9037
ltibia 86.6017
lfoot -10.373 -2.68652
ltoes -9.77449
125
root 7.96586 17.2905 -6.31563 -172.776 5.57527 182.949
lowerback 5.40419 4.98651 0.019188
upperback 1.85196 6.81263 2.13577
thorax -1.36448 3.45683 1.72652
lowerneck -11.9119 -7.31219 -14.7918
upperneck 10.9389 -10.5411 18.6552
head 7.13719 -4.63038 7.47086
rclavicle 2.27608e-014 -1.82882e-014
rhumerus -27.9446 21.481 -90.1621
rradius 130.272
rwrist 7.95622
rhand -36.1278 -9.75144
rfingers 7.12502
rthumb -9.23312 -39.5293
lclavicle 2.27608e-014 -1.82882e-014
lhumerus -97.5406 -27.9642 103.139
lradius 70.7137
lwrist -11.9585
lhand -34.4042 10.2593
lfingers 7.12502
lthumb -7.5697 40.1038
rfemur 7.96288 -7.51555 24.937
rtibia 31.0015
rfoot -162.575 14.7112
rtoes -7.07876
lfemur -48.6598 3.07375 -13.8149
ltibia 82.6459
lfoot -11.7254 -2.32443
ltoes -10.2347
126
root 7.96821 17.4288 -6.84638 -172.758 4.93567 182.621
lowerback 5.00974 5.04505 -0.0855794
upperback 1.73983 6.86085 1.91567
thorax -1.2477 3.47352 1.58861
lowerneck -12.1259 -7.40541 -14.7022
upperneck 11.3243 -10.6743 18.426
head 7.30097 -4.68465 7.35863
rclavicle -2.56432e-014 -3.57812e-015
rhumerus -29.3548 23.5226 -90.4597
rradius 132.073
rwrist 8.51231
rhand -35.3768 -8.68573
rfingers 7.12502
rthumb -8.50841 -38.4943
lclavicle -2.56432e-014 -3.57812e-015
lhumerus -98.5695 -27.607 102.9
lradius 71.9617
lwrist -11.4611
lhand -34.8437 10.2432
lfingers 7.12502
lthumb -7.9939 40.072
rfemur 10.3525 -7.56195 24.3281
rtibia 28.9894
rfoot -159.949 11.8373
rtoes -8.72927
lfemur -48.8045 1.57873 -14.326
ltibia 78.2603
lfoot -13.1032 -2.51315
ltoes -9.63939
127
root 7.96842 17.5747 -7.38717 -172.778 4.23275 182.22
lowerback 4.59389 5.03609 -0.314449
upperback 1.67633 6.81857 1.73058
thorax -1.08465 3.44626 1.56495
lowerneck -12.4541 -7.51564 -14.8944
upperneck 11.7954 -10.8259 18.4328
head 7.54823 -4.7407 7.37573
rclavicle -1.18277e-014 -2.78299e-015
rhumerus -31.0817 25.5077 -91.0375
rradius 133.518
rwrist 9.46537
rhand -34.6988 -8.02545
rfingers 7.12502
rthumb -7.85407 -37.8596
lclavicle -1.18277e-014 -2.78299e-015
lhumerus -98.6151 -26.8573 101.813
lradius 73.3259
lwrist -11.3753
lhand -34.8209 10.0008
lfingers 7.12502
lthumb -7.9719 39.8305
rfemur 12.5598 -8.15899 23.437
rtibia 27.1814
rfoot -156.379 8.83595
rtoes -11.0726
lfemur -48.5203 0.127508 -14.9418
ltibia 73.461
lfoot -14.5822 -2.78558
ltoes -9.92752
128
root 7.96432 17.7278 -7.94629 -172.708 3.6417 181.96
lowerback 3.82808 5.0059 -0.294894
upperback 1.69079 6.76105 1.53274
thorax -0.616543 3.41164 1.43278
lowerneck -12.6757 -7.53537 -14.9361
upperneck 11.9746 -10.817 18.3438
head 7.64022 -4.72674 7.35179
rclavicle -3.598e-014 -2.78299e-015
rhumerus -32.9423 27.2719 -91.7505
rradius 134.427
rwrist 10.4462
rhand -34.2064 -7.13852
rfingers 7.12502
rthumb -7.37876 -36.9898
lclavicle -3.598e-014 -2.78299e-015
lhumerus -98.4939 -26.3013 100.962
lradius 74.6427
lwrist -11.3359
lhand -34.9692 10.0482
lfingers 7.12502
lthumb -8.115 39.8724
rfemur 14.5172 -8.75254 22.6448
rtibia 25.5465
rfoot -152.643 5.23544
rtoes -14.7706
lfemur -47.9379 -1.03286 -15.4493
ltibia 68.4341
lfoot -15.8965 -3.05841
ltoes -10.296
